# xmcd
#
# Track frame offsets: 
#        150
#        13173
#        27184
#        41311
#        53930
#        69828
#        84429
#        100209
#        115331
#        129719
#        146230
#        161137
#        176242
#
# Disc length: 2539 seconds
#
# Revision: 0
# Processed by: cddbd v1.5.2PL0 Copyright (c) Steve Scherf et al.
# Submitted via: ExactAudioCopyFreeDBPlugin 1.0
#
DISCID=b309e90d
DTITLE=Jake Owen - Greatest Hits
DYEAR=2017
DGENRE=Country
TTITLE0=Yee Haw
TTITLE1=Don't Think I Can't Love You
TTITLE2=Eight Second Ride
TTITLE3=Barefoot Blue Jean Night
TTITLE4=Alone With You
TTITLE5=The One That Got Away
TTITLE6=Anywhere With You
TTITLE7=Days Of Gold
TTITLE8=Beachin'
TTITLE9=What We Ain't Got
TTITLE10=American Country Love Song
TTITLE11=Subliminal Love
TTITLE12=Long As You're In It
EXTD=
EXTT0=
EXTT1=
EXTT2=
EXTT3=
EXTT4=
EXTT5=
EXTT6=
EXTT7=
EXTT8=
EXTT9=
EXTT10=
EXTT11=
EXTT12=
PLAYORDER=
